<svg data-v-423bf9ae="" xmlns="http://www.w3.org/2000/svg" viewBox="0 0 502 112" class="iconLeft"><!----><!----><!----><g data-v-423bf9ae="" id="05245482-7f16-468f-b329-bbb86eac59b1" fill="#19CEDA" transform="matrix(5.494505456117445,0,0,5.494505456117445,128.96725615285376,13.411713884115095)"><path d="M12.93 13.00L8.46 13.00L8.46 12.25L8.59 12.25L8.59 12.25Q8.81 12.25 8.98 12.22L8.98 12.22L8.98 12.22Q9.15 12.20 9.26 12.11L9.26 12.11L9.26 12.11Q9.37 12.03 9.42 11.88L9.42 11.88L9.42 11.88Q9.47 11.72 9.47 11.47L9.47 11.47L9.47 4.38L6.65 13.00L5.70 13.00L2.74 4.38L2.74 11.34L2.74 11.34Q2.74 11.64 2.81 11.82L2.81 11.82L2.81 11.82Q2.88 12.00 3.02 12.09L3.02 12.09L3.02 12.09Q3.15 12.19 3.34 12.22L3.34 12.22L3.34 12.22Q3.53 12.25 3.78 12.25L3.78 12.25L3.86 12.25L3.86 13.00L0.39 13.00L0.39 12.25L0.98 12.25L0.98 12.25Q1.13 12.25 1.26 12.22L1.26 12.22L1.26 12.22Q1.39 12.20 1.49 12.11L1.49 12.11L1.49 12.11Q1.59 12.02 1.64 11.86L1.64 11.86L1.64 11.86Q1.70 11.69 1.70 11.42L1.70 11.42L1.70 4.59L1.70 4.59Q1.70 4.31 1.64 4.15L1.64 4.15L1.64 4.15Q1.59 3.98 1.49 3.89L1.49 3.89L1.49 3.89Q1.39 3.80 1.26 3.77L1.26 3.77L1.26 3.77Q1.13 3.74 0.98 3.74L0.98 3.74L0.39 3.74L0.39 3.00L4.42 3.00L6.75 9.76L8.98 3.00L12.93 3.00L12.93 3.74L12.35 3.74L12.35 3.74Q12.20 3.74 12.07 3.77L12.07 3.77L12.07 3.77Q11.94 3.80 11.84 3.90L11.84 3.90L11.84 3.90Q11.74 3.99 11.69 4.17L11.69 4.17L11.69 4.17Q11.63 4.35 11.63 4.65L11.63 4.65L11.63 11.34L11.63 11.34Q11.63 11.64 11.69 11.82L11.69 11.82L11.69 11.82Q11.74 12.00 11.84 12.09L11.84 12.09L11.84 12.09Q11.94 12.19 12.07 12.22L12.07 12.22L12.07 12.22Q12.20 12.25 12.35 12.25L12.35 12.25L12.93 12.25L12.93 13.00ZM17.49 6.22L17.49 6.22L17.49 6.22Q16.90 6.22 16.55 6.80L16.55 6.80L16.55 6.80Q16.21 7.38 16.17 8.50L16.17 8.50L18.59 8.50L18.59 8.50Q18.59 7.97 18.53 7.55L18.53 7.55L18.53 7.55Q18.47 7.12 18.34 6.83L18.34 6.83L18.34 6.83Q18.20 6.54 18.00 6.38L18.00 6.38L18.00 6.38Q17.79 6.22 17.49 6.22ZM17.62 13.13L17.62 13.13L17.62 13.13Q16.73 13.13 16.05 12.87L16.05 12.87L16.05 12.87Q15.37 12.61 14.91 12.12L14.91 12.12L14.91 12.12Q14.45 11.63 14.22 10.91L14.22 10.91L14.22 10.91Q13.99 10.20 13.99 9.28L13.99 9.28L13.99 9.28Q13.99 8.30 14.22 7.55L14.22 7.55L14.22 7.55Q14.45 6.81 14.90 6.31L14.90 6.31L14.90 6.31Q15.34 5.81 15.99 5.56L15.99 5.56L15.99 5.56Q16.63 5.31 17.46 5.31L17.46 5.31L17.46 5.31Q18.22 5.31 18.83 5.53L18.83 5.53L18.83 5.53Q19.43 5.74 19.86 6.17L19.86 6.17L19.86 6.17Q20.28 6.59 20.51 7.22L20.51 7.22L20.51 7.22Q20.73 7.85 20.73 8.68L20.73 8.68L20.73 9.40L16.15 9.40L16.15 9.40Q16.17 10.10 16.30 10.61L16.30 10.61L16.30 10.61Q16.43 11.12 16.67 11.44L16.67 11.44L16.67 11.44Q16.91 11.77 17.24 11.93L17.24 11.93L17.24 11.93Q17.58 12.09 18.02 12.09L18.02 12.09L18.02 12.09Q18.38 12.09 18.69 12.00L18.69 12.00L18.69 12.00Q19.00 11.92 19.25 11.76L19.25 11.76L19.25 11.76Q19.50 11.61 19.68 11.40L19.68 11.40L19.68 11.40Q19.87 11.19 20.00 10.95L20.00 10.95L20.00 10.95Q20.37 11.16 20.37 11.63L20.37 11.63L20.37 11.63Q20.37 11.94 20.21 12.21L20.21 12.21L20.21 12.21Q20.04 12.48 19.70 12.68L19.70 12.68L19.70 12.68Q19.36 12.89 18.84 13.01L18.84 13.01L18.84 13.01Q18.33 13.13 17.62 13.13ZM28.99 2.36L28.99 11.27L28.99 11.27Q28.99 11.59 29.09 11.79L29.09 11.79L29.09 11.79Q29.18 11.98 29.34 12.08L29.34 12.08L29.34 12.08Q29.50 12.18 29.71 12.22L29.71 12.22L29.71 12.22Q29.92 12.25 30.15 12.25L30.15 12.25L30.21 12.25L30.21 13.00L27.49 13.00L27.10 11.90L26.97 11.90L26.97 11.90Q26.82 12.19 26.62 12.41L26.62 12.41L26.62 12.41Q26.41 12.64 26.15 12.80L26.15 12.80L26.15 12.80Q25.89 12.96 25.56 13.05L25.56 13.05L25.56 13.05Q25.23 13.13 24.82 13.13L24.82 13.13L24.82 13.13Q24.14 13.13 23.60 12.90L23.60 12.90L23.60 12.90Q23.07 12.67 22.71 12.20L22.71 12.20L22.71 12.20Q22.34 11.72 22.15 10.99L22.15 10.99L22.15 10.99Q21.96 10.26 21.96 9.26L21.96 9.26L21.96 9.26Q21.96 8.24 22.15 7.50L22.15 7.50L22.15 7.50Q22.34 6.76 22.70 6.28L22.70 6.28L22.70 6.28Q23.06 5.80 23.59 5.56L23.59 5.56L23.59 5.56Q24.12 5.33 24.79 5.33L24.79 5.33L24.79 5.33Q25.19 5.33 25.51 5.41L25.51 5.41L25.51 5.41Q25.83 5.50 26.08 5.64L26.08 5.64L26.08 5.64Q26.34 5.79 26.54 6.00L26.54 6.00L26.54 6.00Q26.74 6.20 26.88 6.45L26.88 6.45L26.97 6.45L26.97 6.45Q26.95 6.06 26.92 5.71L26.92 5.71L26.92 5.71Q26.91 5.57 26.90 5.42L26.90 5.42L26.90 5.42Q26.89 5.27 26.88 5.14L26.88 5.14L26.88 5.14Q26.87 5.00 26.87 4.90L26.87 4.90L26.87 4.90Q26.87 4.80 26.87 4.74L26.87 4.74L26.87 3.96L26.87 3.96Q26.87 3.68 26.77 3.50L26.77 3.50L26.77 3.50Q26.68 3.33 26.53 3.24L26.53 3.24L26.53 3.24Q26.37 3.15 26.17 3.12L26.17 3.12L26.17 3.12Q25.96 3.10 25.73 3.10L25.73 3.10L25.62 3.10L25.62 2.36L28.99 2.36ZM25.42 12.09L25.42 12.09L25.42 12.09Q25.84 12.09 26.12 11.91L26.12 11.91L26.12 11.91Q26.39 11.74 26.56 11.38L26.56 11.38L26.56 11.38Q26.73 11.03 26.80 10.49L26.80 10.49L26.80 10.49Q26.87 9.95 26.87 9.23L26.87 9.23L26.87 9.23Q26.87 8.54 26.80 8.00L26.80 8.00L26.80 8.00Q26.73 7.46 26.56 7.10L26.56 7.10L26.56 7.10Q26.39 6.73 26.12 6.55L26.12 6.55L26.12 6.55Q25.84 6.36 25.42 6.36L25.42 6.36L25.42 6.36Q25.07 6.36 24.82 6.55L24.82 6.55L24.82 6.55Q24.58 6.73 24.42 7.10L24.42 7.10L24.42 7.10Q24.27 7.47 24.20 8.01L24.20 8.01L24.20 8.01Q24.12 8.54 24.12 9.24L24.12 9.24L24.12 9.24Q24.12 10.67 24.42 11.38L24.42 11.38L24.42 11.38Q24.72 12.09 25.42 12.09ZM31.61 3.22L31.61 3.22L31.61 3.22Q31.61 2.95 31.70 2.76L31.70 2.76L31.70 2.76Q31.79 2.57 31.95 2.45L31.95 2.45L31.95 2.45Q32.12 2.33 32.33 2.27L32.33 2.27L32.33 2.27Q32.55 2.21 32.80 2.21L32.80 2.21L32.80 2.21Q33.04 2.21 33.26 2.27L33.26 2.27L33.26 2.27Q33.48 2.33 33.64 2.45L33.64 2.45L33.64 2.45Q33.80 2.57 33.90 2.76L33.90 2.76L33.90 2.76Q34.00 2.95 34.00 3.22L34.00 3.22L34.00 3.22Q34.00 3.48 33.90 3.67L33.90 3.67L33.90 3.67Q33.80 3.86 33.64 3.99L33.64 3.99L33.64 3.99Q33.48 4.11 33.26 4.17L33.26 4.17L33.26 4.17Q33.04 4.23 32.80 4.23L32.80 4.23L32.80 4.23Q32.55 4.23 32.33 4.17L32.33 4.17L32.33 4.17Q32.12 4.11 31.95 3.99L31.95 3.99L31.95 3.99Q31.79 3.86 31.70 3.67L31.70 3.67L31.70 3.67Q31.61 3.48 31.61 3.22ZM30.65 12.25L30.81 12.25L30.81 12.25Q30.97 12.25 31.14 12.22L31.14 12.22L31.14 12.22Q31.32 12.19 31.46 12.09L31.46 12.09L31.46 12.09Q31.61 12.00 31.71 11.82L31.71 11.82L31.71 11.82Q31.81 11.64 31.81 11.34L31.81 11.34L31.81 7.09L31.81 7.09Q31.81 6.81 31.71 6.64L31.71 6.64L31.71 6.64Q31.61 6.47 31.46 6.38L31.46 6.38L31.46 6.38Q31.31 6.29 31.13 6.26L31.13 6.26L31.13 6.26Q30.96 6.23 30.81 6.23L30.81 6.23L30.65 6.23L30.65 5.49L33.93 5.49L33.93 11.34L33.93 11.34Q33.93 11.64 34.03 11.82L34.03 11.82L34.03 11.82Q34.13 12.00 34.28 12.09L34.28 12.09L34.28 12.09Q34.43 12.19 34.60 12.22L34.60 12.22L34.60 12.22Q34.78 12.25 34.93 12.25L34.93 12.25L35.10 12.25L35.10 13.00L30.65 13.00L30.65 12.25ZM41.28 12.02L41.28 12.02L41.28 12.02Q41.79 12.02 42.19 11.90L42.19 11.90L42.19 11.90Q42.59 11.78 42.91 11.59L42.91 11.59L42.91 11.59Q43.22 11.40 43.46 11.16L43.46 11.16L43.46 11.16Q43.70 10.92 43.87 10.68L43.87 10.68L43.87 10.68Q43.98 10.77 44.05 10.94L44.05 10.94L44.05 10.94Q44.11 11.11 44.11 11.29L44.11 11.29L44.11 11.29Q44.11 11.58 43.96 11.90L43.96 11.90L43.96 11.90Q43.80 12.23 43.43 12.50L43.43 12.50L43.43 12.50Q43.06 12.78 42.45 12.95L42.45 12.95L42.45 12.95Q41.84 13.13 40.95 13.13L40.95 13.13L40.95 13.13Q39.73 13.13 38.82 12.76L38.82 12.76L38.82 12.76Q37.91 12.39 37.31 11.72L37.31 11.72L37.31 11.72Q36.71 11.04 36.41 10.09L36.41 10.09L36.41 10.09Q36.11 9.14 36.11 7.98L36.11 7.98L36.11 7.98Q36.11 6.85 36.42 5.91L36.42 5.91L36.42 5.91Q36.72 4.96 37.33 4.29L37.33 4.29L37.33 4.29Q37.93 3.61 38.84 3.23L38.84 3.23L38.84 3.23Q39.74 2.86 40.93 2.86L40.93 2.86L40.93 2.86Q41.74 2.86 42.34 2.98L42.34 2.98L42.34 2.98Q42.94 3.11 43.33 3.33L43.33 3.33L43.33 3.33Q43.73 3.55 43.93 3.85L43.93 3.85L43.93 3.85Q44.13 4.14 44.13 4.48L44.13 4.48L44.13 4.48Q44.13 4.74 44.01 4.97L44.01 4.97L44.01 4.97Q43.90 5.19 43.68 5.35L43.68 5.35L43.68 5.35Q43.46 5.52 43.13 5.61L43.13 5.61L43.13 5.61Q42.80 5.70 42.38 5.70L42.38 5.70L42.38 5.70Q42.38 5.35 42.30 5.01L42.30 5.01L42.30 5.01Q42.23 4.66 42.04 4.38L42.04 4.38L42.04 4.38Q41.86 4.10 41.57 3.93L41.57 3.93L41.57 3.93Q41.28 3.75 40.84 3.75L40.84 3.75L40.84 3.75Q40.17 3.75 39.72 4.03L39.72 4.03L39.72 4.03Q39.26 4.31 38.98 4.85L38.98 4.85L38.98 4.85Q38.71 5.39 38.58 6.18L38.58 6.18L38.58 6.18Q38.46 6.97 38.46 7.98L38.46 7.98L38.46 7.98Q38.46 9.00 38.61 9.75L38.61 9.75L38.61 9.75Q38.76 10.51 39.09 11.02L39.09 11.02L39.09 11.02Q39.43 11.52 39.97 11.77L39.97 11.77L39.97 11.77Q40.50 12.02 41.28 12.02ZM47.49 10.91L47.49 10.91L47.49 10.91Q47.49 11.51 47.68 11.81L47.68 11.81L47.68 11.81Q47.87 12.11 48.28 12.11L48.28 12.11L48.28 12.11Q48.58 12.11 48.83 11.99L48.83 11.99L48.83 11.99Q49.07 11.86 49.24 11.63L49.24 11.63L49.24 11.63Q49.42 11.40 49.51 11.06L49.51 11.06L49.51 11.06Q49.60 10.73 49.60 10.32L49.60 10.32L49.60 9.27L48.97 9.31L48.97 9.31Q48.56 9.33 48.27 9.44L48.27 9.44L48.27 9.44Q47.98 9.56 47.81 9.75L47.81 9.75L47.81 9.75Q47.64 9.95 47.56 10.24L47.56 10.24L47.56 10.24Q47.49 10.53 47.49 10.91ZM48.73 6.17L48.73 6.17L48.73 6.17Q48.47 6.17 48.29 6.28L48.29 6.28L48.29 6.28Q48.10 6.39 48.00 6.59L48.00 6.59L48.00 6.59Q47.89 6.79 47.84 7.07L47.84 7.07L47.84 7.07Q47.80 7.35 47.80 7.68L47.80 7.68L47.80 7.68Q46.85 7.68 46.38 7.46L46.38 7.46L46.38 7.46Q45.90 7.25 45.90 6.74L45.90 6.74L45.90 6.74Q45.90 6.36 46.13 6.08L46.13 6.08L46.13 6.08Q46.36 5.81 46.75 5.64L46.75 5.64L46.75 5.64Q47.15 5.47 47.67 5.39L47.67 5.39L47.67 5.39Q48.19 5.31 48.79 5.31L48.79 5.31L48.79 5.31Q49.53 5.31 50.08 5.44L50.08 5.44L50.08 5.44Q50.63 5.56 50.99 5.84L50.99 5.84L50.99 5.84Q51.36 6.13 51.54 6.58L51.54 6.58L51.54 6.58Q51.73 7.03 51.73 7.69L51.73 7.69L51.73 11.26L51.73 11.26Q51.73 11.55 51.77 11.74L51.77 11.74L51.77 11.74Q51.82 11.93 51.91 12.04L51.91 12.04L51.91 12.04Q52.01 12.15 52.17 12.20L52.17 12.20L52.17 12.20Q52.34 12.25 52.57 12.25L52.57 12.25L52.62 12.25L52.62 13.00L50.02 13.00L49.72 12.03L49.60 12.03L49.60 12.03Q49.37 12.31 49.16 12.52L49.16 12.52L49.16 12.52Q48.96 12.73 48.73 12.87L48.73 12.87L48.73 12.87Q48.49 13.00 48.20 13.07L48.20 13.07L48.20 13.07Q47.91 13.13 47.52 13.13L47.52 13.13L47.52 13.13Q47.05 13.13 46.65 13.00L46.65 13.00L46.65 13.00Q46.25 12.86 45.95 12.57L45.95 12.57L45.95 12.57Q45.66 12.29 45.49 11.86L45.49 11.86L45.49 11.86Q45.32 11.44 45.32 10.86L45.32 10.86L45.32 10.86Q45.32 9.71 46.10 9.17L46.10 9.17L46.10 9.17Q46.88 8.62 48.45 8.57L48.45 8.57L49.60 8.53L49.60 7.76L49.60 7.76Q49.60 7.41 49.57 7.12L49.57 7.12L49.57 7.12Q49.55 6.82 49.46 6.61L49.46 6.61L49.46 6.61Q49.37 6.40 49.19 6.28L49.19 6.28L49.19 6.28Q49.02 6.17 48.73 6.17ZM58.03 12.25L58.03 13.00L53.35 13.00L53.35 12.25L53.40 12.25L53.40 12.25Q53.63 12.25 53.83 12.22L53.83 12.22L53.83 12.22Q54.03 12.18 54.17 12.08L54.17 12.08L54.17 12.08Q54.32 11.97 54.40 11.77L54.40 11.77L54.40 11.77Q54.48 11.57 54.48 11.25L54.48 11.25L54.48 7.18L54.48 7.18Q54.48 6.88 54.40 6.69L54.40 6.69L54.40 6.69Q54.33 6.50 54.20 6.40L54.20 6.40L54.20 6.40Q54.07 6.30 53.88 6.27L53.88 6.27L53.88 6.27Q53.70 6.23 53.46 6.23L53.46 6.23L53.42 6.23L53.42 5.49L56.25 5.49L56.53 6.58L56.60 6.58L56.60 6.58Q56.74 6.27 56.90 6.03L56.90 6.03L56.90 6.03Q57.07 5.80 57.30 5.64L57.30 5.64L57.30 5.64Q57.52 5.48 57.84 5.40L57.84 5.40L57.84 5.40Q58.15 5.33 58.58 5.33L58.58 5.33L58.58 5.33Q59.40 5.33 59.79 5.62L59.79 5.62L59.79 5.62Q60.18 5.91 60.18 6.46L60.18 6.46L60.18 6.46Q60.18 7.10 59.72 7.46L59.72 7.46L59.72 7.46Q59.25 7.81 58.41 7.81L58.41 7.81L58.41 7.81Q58.41 7.53 58.38 7.31L58.38 7.31L58.38 7.31Q58.34 7.09 58.27 6.95L58.27 6.95L58.27 6.95Q58.19 6.80 58.05 6.73L58.05 6.73L58.05 6.73Q57.92 6.65 57.72 6.65L57.72 6.65L57.72 6.65Q57.48 6.65 57.30 6.77L57.30 6.77L57.30 6.77Q57.12 6.90 57.00 7.09L57.00 7.09L57.00 7.09Q56.88 7.29 56.80 7.53L56.80 7.53L56.80 7.53Q56.72 7.78 56.67 8.03L56.67 8.03L56.67 8.03Q56.63 8.28 56.62 8.50L56.62 8.50L56.62 8.50Q56.60 8.73 56.60 8.89L56.60 8.89L56.60 11.31L56.60 11.31Q56.60 11.62 56.68 11.81L56.68 11.81L56.68 11.81Q56.75 12.00 56.88 12.09L56.88 12.09L56.88 12.09Q57.01 12.19 57.19 12.22L57.19 12.22L57.19 12.22Q57.37 12.25 57.58 12.25L57.58 12.25L58.03 12.25ZM64.55 6.22L64.55 6.22L64.55 6.22Q63.96 6.22 63.62 6.80L63.62 6.80L63.62 6.80Q63.27 7.38 63.24 8.50L63.24 8.50L65.66 8.50L65.66 8.50Q65.66 7.97 65.60 7.55L65.60 7.55L65.60 7.55Q65.54 7.12 65.40 6.83L65.40 6.83L65.40 6.83Q65.27 6.54 65.06 6.38L65.06 6.38L65.06 6.38Q64.85 6.22 64.55 6.22ZM64.68 13.13L64.68 13.13L64.68 13.13Q63.79 13.13 63.11 12.87L63.11 12.87L63.11 12.87Q62.43 12.61 61.97 12.12L61.97 12.12L61.97 12.12Q61.52 11.63 61.28 10.91L61.28 10.91L61.28 10.91Q61.05 10.20 61.05 9.28L61.05 9.28L61.05 9.28Q61.05 8.30 61.28 7.55L61.28 7.55L61.28 7.55Q61.52 6.81 61.96 6.31L61.96 6.31L61.96 6.31Q62.41 5.81 63.05 5.56L63.05 5.56L63.05 5.56Q63.70 5.31 64.52 5.31L64.52 5.31L64.52 5.31Q65.28 5.31 65.89 5.53L65.89 5.53L65.89 5.53Q66.50 5.74 66.92 6.17L66.92 6.17L66.92 6.17Q67.35 6.59 67.57 7.22L67.57 7.22L67.57 7.22Q67.80 7.85 67.80 8.68L67.80 8.68L67.80 9.40L63.21 9.40L63.21 9.40Q63.23 10.10 63.37 10.61L63.37 10.61L63.37 10.61Q63.50 11.12 63.73 11.44L63.73 11.44L63.73 11.44Q63.97 11.77 64.31 11.93L64.31 11.93L64.31 11.93Q64.65 12.09 65.08 12.09L65.08 12.09L65.08 12.09Q65.45 12.09 65.75 12.00L65.75 12.00L65.75 12.00Q66.06 11.92 66.31 11.76L66.31 11.76L66.31 11.76Q66.56 11.61 66.75 11.40L66.75 11.40L66.75 11.40Q66.94 11.19 67.06 10.95L67.06 10.95L67.06 10.95Q67.44 11.16 67.44 11.63L67.44 11.63L67.44 11.63Q67.44 11.94 67.27 12.21L67.27 12.21L67.27 12.21Q67.11 12.48 66.77 12.68L66.77 12.68L66.77 12.68Q66.42 12.89 65.91 13.01L65.91 13.01L65.91 13.01Q65.39 13.13 64.68 13.13Z"></path></g><!----><g data-v-423bf9ae="" id="5a1d4f0f-5df3-41e1-81ab-a7e6dfd85f65" transform="matrix(1.1111012776692708,0,0,1.1111012776692708,0.4449361165364607,0.44542778427712904)" stroke="none" fill="#19CEDA"><path d="M69.089 6.549c-3.158-2.588-5.352-1.979-8.516 3.662-2.09 3.73-5.417 4.18-7.455 4.066l.014-.746c2.363-1.175 4.029-3.558 4.029-6.367A7.16 7.16 0 0 0 50 0c-3.952 0-7.174 3.2-7.174 7.165 0 2.809 1.667 5.192 4.036 6.361l.007.752c-2.031.114-5.365-.335-7.455-4.066-3.151-5.641-5.352-6.25-8.502-3.662C27.741 9.141 15.241 24.079 0 22.708c0 0 3.021 6.859 11.256 5.339 0 0 4.401 4.567 11.543 1.37 0 0 3.711 3.347 9.616.303 0 0 4.388 3.353 9.069.456 0 0 2.643 1.914 5.58 1.419l.188 17.246c-.332-.065-.599-.143-.95-.205-.013-.006-5.117-1.1-10.515-2.614-5.195-1.361-10.898-3.568-11.738-4.717.072-.072.189-.127.339-.199.462-.244 1.25-.495 2.188-.687 1.907-.388 4.492-.586 7.09-.69 5.163-.186 6.094.039 6.185.056.007-.163 2.988.352 3.809-2.686-.032-.026.059-.15.007-.222-.169-2.09-1.777-2.194-3.093-2.438-2.135-.28-1.022-.169-3.899-.133-4.727.352-19.291-.827-21.126 6.839 0 .215-.013.352-.039.541.612 6.676 14.434 9.573 24.447 11.569-3.398 2.327-5.215 5.354-5.938 9.268-.345 4.173 2.969 8.145 10.664 12.584-5.847 4.141-9.688 8.027-9.375 12.722.547 3.828 3.926 8.945 10.566 12.168.02.007.026-.007.039 0h.02s-4.648-7.09-4.961-10.97c-.306-2.266.983-5.612 6.634-9.643l.163 14.18h.026c.039 1.205.97 2.168 2.142 2.168 1.171 0 2.103-.963 2.142-2.168h.02l.188-13.809c5.208 3.861 6.387 7.07 6.087 9.271-.312 3.88-4.954 10.97-4.954 10.97h.013s.014.007.046 0c6.634-3.223 10.02-8.34 10.56-12.168.312-4.694-3.528-8.581-9.368-12.722 7.688-4.439 11.009-8.411 10.664-12.584-.723-3.913-2.539-6.94-5.944-9.268 10.02-1.996 23.835-4.893 24.447-11.569a3.529 3.529 0 0 1-.039-.541c-1.83-7.666-16.4-6.487-21.127-6.839-2.877-.036-1.764-.146-3.899.133-1.315.244-2.923.348-3.093 2.438-.052.072.046.195.014.222.82 3.037 3.802 2.522 3.809 2.686.084-.017 1.016-.241 6.185-.056 2.591.104 5.176.303 7.083.69.944.192 1.719.442 2.188.687.15.072.273.127.346.199-.84 1.149-6.543 3.356-11.738 4.717-5.404 1.514-10.508 2.607-10.521 2.614-.13.026-.234.052-.364.075l.222-17.119c2.955.518 5.618-1.416 5.618-1.416 4.668 2.897 9.069-.456 9.069-.456 5.904 3.044 9.609-.303 9.609-.303 7.142 3.197 11.543-1.37 11.543-1.37C96.973 29.567 100 22.708 100 22.708 84.753 24.079 72.253 9.141 69.089 6.549zM43.268 67.711c-1.907-1.185-2.799-2.786-2.624-3.867.104-1.504-.417-5.091 6.699-7.702l.163 14.245c-1.373-.866-2.793-1.758-4.238-2.676zm15.43-3.867c.176 1.081-.717 2.683-2.624 3.867-1.25.801-2.474 1.562-3.672 2.317l.183-13.665c6.49 2.598 6.009 6.023 6.113 7.481z"></path></g><!----></svg>